<?xml version="1.0" encoding="UTF-8"?>
<svg width="18" height="18" viewBox="0 0 18 18" xmlns="http://www.w3.org/2000/svg">
    <path fill="#fff" d="M14.995 4.92c.63-.375 1.11-.97 1.337-1.68-.59.35-1.24.6-1.935.735-.555-.59-1.346-.96-2.222-.96-1.68 0-3.042 1.36-3.042 3.04 0 .24.027.47.08.69-2.528-.125-4.77-1.335-6.27-3.175-.262.45-.412.97-.412 1.525 0 1.055.537 1.985 1.353 2.53-.5-.016-.968-.153-1.378-.382v.038c0 1.473 1.047 2.7 2.438 2.98-.255.07-.523.107-.8.107-.195 0-.385-.02-.57-.055.387 1.207 1.51 2.085 2.84 2.11-1.04.815-2.35 1.3-3.773 1.3-.245 0-.487-.015-.725-.043 1.345.86 2.94 1.36 4.655 1.36 5.585 0 8.64-4.63 8.64-8.64l-.01-.393c.593-.428 1.108-.963 1.515-1.572-.545.242-1.13.405-1.745.478z"/>
</svg> 